<svg width="103" height="17" viewBox="0 0 103 17" fill="none" xmlns="http://www.w3.org/2000/svg">
<path d="M0 0H3.37291L9.46782 5.73565V10.2L3.72795 4.78956V17H0V0ZM20.3854 0H17.0421L10.9176 5.73565V10.2L16.6574 4.78956V17H20.3854V0Z" fill="white"/>
<path d="M25.7013 0H29.4293V17H25.7013V0Z" fill="white"/>
<path d="M34.7589 0H38.4868V13.5409H44.1083V17H34.7589V0ZM45.6765 13.5409V17H55.1443V13.5409H45.6765Z" fill="white"/>
<path d="M57.802 2.04L61.2637 0H67.3882V3.34087H61.53V13.5409H67.2698V17H61.2637L57.802 14.9896V2.04ZM78.1874 2.04L74.8441 0H68.7196V3.34087H74.4595V13.5409H68.7196V17H74.8441L78.1874 14.9896V2.04Z" fill="white"/>
<path d="M82.6146 2.04L85.9875 0H92.0824V3.4887H86.2242V6.82957H92.0824V10.2887H85.9875L82.6146 8.27826V2.04ZM103 8.86957L99.5087 6.82957H93.4138V10.2887H99.272V13.6591H93.5322V17H99.5087L103 14.9896V8.86957ZM86.3425 11.6191V13.6591H92.0824V17H86.0763L82.6146 14.9896V11.6191H86.3425ZM103 5.49914V2.04L99.5087 0H93.4138V3.4887H99.272V5.49914H103Z" fill="white"/>
</svg>
