<svg width="272" height="36" viewBox="0 0 272 36" fill="none" xmlns="http://www.w3.org/2000/svg">
<path d="M61.1408 0H68.3835C70.1508 0 71.7208 0.342781 73.0936 1.02834C74.4664 1.69832 75.5315 2.65655 76.2889 3.90302C77.0464 5.13392 77.4251 6.55957 77.4251 8.17999C77.4251 9.80041 77.0464 11.2339 76.2889 12.4803C75.5315 13.7112 74.4664 14.6694 73.0936 15.355C71.7208 16.025 70.1508 16.36 68.3835 16.36H61.1408V0ZM68.2415 13.7891C69.4565 13.7891 70.5216 13.5632 71.4368 13.1114C72.3678 12.6439 73.0779 11.9895 73.567 11.1482C74.072 10.2912 74.3244 9.30182 74.3244 8.17999C74.3244 7.05816 74.072 6.07656 73.567 5.23519C73.0779 4.37824 72.3678 3.72384 71.4368 3.272C70.5216 2.80457 69.4565 2.57085 68.2415 2.57085H64.2178V13.7891H68.2415Z" fill="white"/>
<path d="M91.21 12.5738H82.9259L81.2927 16.36H78.1211L85.5768 0H88.6064L96.0858 16.36H92.8668L91.21 12.5738ZM90.1922 10.1899L87.0679 3.03828L83.9673 10.1899H90.1922Z" fill="white"/>
<path d="M98.1929 0H101.27V16.36H98.1929V0Z" fill="white"/>
<path d="M105.751 0H108.828V13.7891H117.491V16.36H105.751V0Z" fill="white"/>
<path d="M125.335 10.5872V16.36H122.258V10.634L115.749 0H119.039L123.891 7.96965L128.79 0H131.82L125.335 10.5872Z" fill="white"/>
<path d="M61.1408 19.122H64.2178V35.482H61.1408V19.122Z" fill="white"/>
<path d="M83.4213 19.122V35.482H80.8887L71.7525 24.404V35.482H68.6992V19.122H71.2317L80.368 30.2001V19.122H83.4213Z" fill="white"/>
<path d="M91.2218 21.6929H85.7306V19.122H99.79V21.6929H94.2988V35.482H91.2218V21.6929Z" fill="white"/>
<path d="M114.525 32.9345V35.482H102.099V19.122H114.194V21.6695H105.176V25.9231H113.176V28.4239H105.176V32.9345H114.525Z" fill="white"/>
<path d="M117.956 19.122H121.033V32.9112H129.695V35.482H117.956V19.122Z" fill="white"/>
<path d="M132.125 19.122H135.202V32.9112H143.864V35.482H132.125V19.122Z" fill="white"/>
<path d="M146.294 19.122H149.371V35.482H146.294V19.122Z" fill="white"/>
<path d="M165.166 27.1151H168.077V33.6357C167.225 34.3057 166.231 34.8198 165.095 35.1782C163.959 35.5366 162.791 35.7157 161.592 35.7157C159.903 35.7157 158.381 35.3574 157.024 34.6407C155.667 33.9084 154.601 32.9034 153.828 31.6257C153.055 30.3481 152.669 28.9069 152.669 27.302C152.669 25.6972 153.055 24.256 153.828 22.9783C154.601 21.7007 155.667 20.7035 157.024 19.9868C158.396 19.2545 159.935 18.8883 161.639 18.8883C163.028 18.8883 164.29 19.1143 165.426 19.5661C166.562 20.018 167.517 20.6801 168.29 21.5527L166.349 23.4224C165.087 22.1759 163.564 21.5527 161.781 21.5527C160.613 21.5527 159.572 21.7942 158.657 22.2772C157.757 22.7602 157.047 23.438 156.527 24.3105C156.022 25.183 155.769 26.1802 155.769 27.302C155.769 28.3927 156.022 29.3743 156.527 30.2468C157.047 31.1194 157.757 31.8049 158.657 32.3035C159.572 32.8021 160.606 33.0514 161.757 33.0514C163.051 33.0514 164.187 32.7709 165.166 32.21V27.1151Z" fill="white"/>
<path d="M184.562 32.9345V35.482H172.135V19.122H184.23V21.6695H175.212V25.9231H183.212V28.4239H175.212V32.9345H184.562Z" fill="white"/>
<path d="M202.714 19.122V35.482H200.181L191.045 24.404V35.482H187.992V19.122H190.524L199.66 30.2001V19.122H202.714Z" fill="white"/>
<path d="M214.822 35.7157C213.15 35.7157 211.635 35.3574 210.278 34.6407C208.936 33.9084 207.879 32.9034 207.106 31.6257C206.349 30.3481 205.97 28.9069 205.97 27.302C205.97 25.6972 206.357 24.256 207.13 22.9783C207.903 21.7007 208.96 20.7035 210.301 19.9868C211.658 19.2545 213.173 18.8883 214.846 18.8883C216.203 18.8883 217.441 19.122 218.562 19.5895C219.682 20.0569 220.629 20.7347 221.402 21.6228L219.414 23.4691C218.215 22.1915 216.739 21.5527 214.988 21.5527C213.852 21.5527 212.834 21.802 211.935 22.3006C211.035 22.7836 210.333 23.4613 209.828 24.3339C209.323 25.2064 209.071 26.1958 209.071 27.302C209.071 28.4083 209.323 29.3977 209.828 30.2702C210.333 31.1427 211.035 31.8283 211.935 32.3269C212.834 32.8099 213.852 33.0514 214.988 33.0514C216.739 33.0514 218.215 32.4048 219.414 31.1116L221.402 32.9813C220.629 33.8694 219.674 34.5472 218.538 35.0146C217.418 35.482 216.179 35.7157 214.822 35.7157Z" fill="white"/>
<path d="M236.777 32.9345V35.482H224.35V19.122H236.445V21.6695H227.427V25.9231H235.427V28.4239H227.427V32.9345H236.777Z" fill="white"/>
<path d="M251.047 35.482L247.662 30.6909C247.52 30.7065 247.307 30.7143 247.023 30.7143H243.284V35.482H240.207V19.122H247.023C248.459 19.122 249.706 19.3558 250.763 19.8232C251.836 20.2906 252.657 20.9606 253.225 21.8331C253.793 22.7057 254.077 23.7418 254.077 24.9415C254.077 26.1724 253.769 27.2319 253.154 28.12C252.554 29.0082 251.686 29.6703 250.55 30.1066L254.361 35.482H251.047ZM250.976 24.9415C250.976 23.8976 250.629 23.0952 249.935 22.5343C249.24 21.9734 248.223 21.6929 246.881 21.6929H243.284V28.2135H246.881C248.223 28.2135 249.24 27.9331 249.935 27.3722C250.629 26.7957 250.976 25.9855 250.976 24.9415Z" fill="white"/>
<path fill-rule="evenodd" clip-rule="evenodd" d="M50.1453 33.1961L50.1453 2.18046L18.7348 2.18046L18.7348 33.1961L50.1453 33.1961ZM51.9229 0.425293L16.9573 0.425291L16.9573 34.9512L51.9229 34.9512L51.9229 0.425293Z" fill="#849BEC"/>
<path d="M21.8824 5.94702H26.3698C27.4647 5.94702 28.4375 6.1594 29.288 6.58415C30.1385 6.99924 30.7984 7.59293 31.2677 8.3652C31.737 9.12782 31.9716 10.0111 31.9716 11.0151C31.9716 12.019 31.737 12.9071 31.2677 13.6794C30.7984 14.442 30.1385 15.0357 29.288 15.4605C28.4375 15.8755 27.4647 16.0831 26.3698 16.0831H21.8824V5.94702ZM26.2818 14.4903C27.0346 14.4903 27.6945 14.3503 28.2615 14.0704C28.8383 13.7808 29.2782 13.3753 29.5813 12.854C29.8941 12.3231 30.0506 11.7101 30.0506 11.0151C30.0506 10.32 29.8941 9.71185 29.5813 9.19057C29.2782 8.65963 28.8383 8.25419 28.2615 7.97424C27.6945 7.68463 27.0346 7.53983 26.2818 7.53983H23.7888V14.4903H26.2818Z" fill="#849BEC"/>
<path d="M42.7217 18.5181H44.6281V28.6541H42.7217V18.5181Z" fill="#849BEC"/>
</svg>
