<svg width="15" height="15" viewBox="0 0 15 15" fill="none" xmlns="http://www.w3.org/2000/svg">
<path fill-rule="evenodd" clip-rule="evenodd" d="M11.8861 10.1616L14.6459 12.9214C14.9034 13.1816 14.9034 13.6024 14.6432 13.8626L13.8598 14.646C13.6023 14.9062 13.1816 14.9062 12.9214 14.646L10.1615 11.8861C10.0369 11.7616 9.96773 11.5927 9.96773 11.4155V10.9643C8.99056 11.7283 7.7615 12.1823 6.42447 12.1823C3.24385 12.1823 0.666687 9.60515 0.666687 6.42453C0.666687 3.24391 3.24385 0.666748 6.42447 0.666748C9.60509 0.666748 12.1823 3.24391 12.1823 6.42453C12.1823 7.76156 11.7283 8.99062 10.9643 9.96779H11.4155C11.5926 9.96779 11.7615 10.037 11.8861 10.1616ZM2.88122 6.42453C2.88122 8.38439 4.46738 9.96779 6.42447 9.96779C8.38433 9.96779 9.96772 8.38163 9.96772 6.42453C9.96772 4.46467 8.38157 2.88128 6.42447 2.88128C4.46461 2.88128 2.88122 4.46744 2.88122 6.42453Z" fill="#191919"/>
<mask id="mask0_1_5408" style="mask-type:alpha" maskUnits="userSpaceOnUse" x="0" y="0" width="15" height="15">
<path fill-rule="evenodd" clip-rule="evenodd" d="M11.8861 10.1616L14.6459 12.9214C14.9034 13.1816 14.9034 13.6024 14.6432 13.8626L13.8598 14.646C13.6023 14.9062 13.1816 14.9062 12.9214 14.646L10.1615 11.8861C10.0369 11.7616 9.96773 11.5927 9.96773 11.4155V10.9643C8.99056 11.7283 7.7615 12.1823 6.42447 12.1823C3.24385 12.1823 0.666687 9.60515 0.666687 6.42453C0.666687 3.24391 3.24385 0.666748 6.42447 0.666748C9.60509 0.666748 12.1823 3.24391 12.1823 6.42453C12.1823 7.76156 11.7283 8.99062 10.9643 9.96779H11.4155C11.5926 9.96779 11.7615 10.037 11.8861 10.1616ZM2.88122 6.42453C2.88122 8.38439 4.46738 9.96779 6.42447 9.96779C8.38433 9.96779 9.96772 8.38163 9.96772 6.42453C9.96772 4.46467 8.38157 2.88128 6.42447 2.88128C4.46461 2.88128 2.88122 4.46744 2.88122 6.42453Z" fill="white"/>
</mask>
<g mask="url(#mask0_1_5408)">
<rect width="16" height="16" fill="#191919"/>
<rect width="16" height="16" fill="#191919"/>
<rect width="16" height="16" fill="#191919"/>
</g>
</svg>
