<svg width="16" height="18" viewBox="0 0 16 18" fill="none" xmlns="http://www.w3.org/2000/svg">
<path fill-rule="evenodd" clip-rule="evenodd" d="M12.6993 5.50005H3.29065C2.82336 5.481 2.41411 5.81073 2.33332 6.27139L0.999986 15.5481C0.986018 15.8056 1.08267 16.0569 1.26564 16.2387C1.44861 16.4206 1.7005 16.5156 1.95799 16.5001H14.032C14.2894 16.5157 14.5413 16.4206 14.7241 16.2387C14.907 16.0569 15.0035 15.8056 14.9893 15.5481L13.656 6.27139C13.5752 5.811 13.1664 5.48134 12.6993 5.50005Z" fill="black" stroke="#0C0C0C" stroke-width="1.5" stroke-linecap="round" stroke-linejoin="round"/>
<path d="M10.4413 3.538C10.2154 2.35816 9.18525 1.50378 7.98399 1.5V1.5C6.78898 1.50524 5.76355 2.3527 5.53333 3.52533" stroke="black" stroke-width="1.5" stroke-linecap="round" stroke-linejoin="round"/>
</svg>
