<svg width="13" height="15" viewBox="0 0 13 15" fill="none" xmlns="http://www.w3.org/2000/svg">
<path fill-rule="evenodd" clip-rule="evenodd" d="M9.74395 4.21C9.74395 6.16709 8.15779 7.75325 6.20069 7.75325C4.2436 7.75325 2.65744 6.16709 2.65744 4.21C2.65744 2.25291 4.2436 0.666748 6.20069 0.666748C8.15779 0.666748 9.74395 2.25291 9.74395 4.21ZM8.21868 8.63907H8.68097C10.7349 8.63907 12.4014 10.3055 12.4014 12.3595V13.511C12.4014 14.2446 11.8062 14.8398 11.0727 14.8398H1.32872C0.595156 14.8398 0 14.2446 0 13.511V12.3595C0 10.3055 1.66644 8.63907 3.72041 8.63907H4.1827C4.8 8.92142 5.48097 9.08197 6.20069 9.08197C6.92041 9.08197 7.60415 8.92142 8.21868 8.63907Z" fill="#191919"/>
<mask id="mask0_1_5422" style="mask-type:alpha" maskUnits="userSpaceOnUse" x="0" y="0" width="13" height="15">
<path fill-rule="evenodd" clip-rule="evenodd" d="M9.74395 4.21C9.74395 6.16709 8.15779 7.75325 6.20069 7.75325C4.2436 7.75325 2.65744 6.16709 2.65744 4.21C2.65744 2.25291 4.2436 0.666748 6.20069 0.666748C8.15779 0.666748 9.74395 2.25291 9.74395 4.21ZM8.21868 8.63907H8.68097C10.7349 8.63907 12.4014 10.3055 12.4014 12.3595V13.511C12.4014 14.2446 11.8062 14.8398 11.0727 14.8398H1.32872C0.595156 14.8398 0 14.2446 0 13.511V12.3595C0 10.3055 1.66644 8.63907 3.72041 8.63907H4.1827C4.8 8.92142 5.48097 9.08197 6.20069 9.08197C6.92041 9.08197 7.60415 8.92142 8.21868 8.63907Z" fill="white"/>
</mask>
<g mask="url(#mask0_1_5422)">
<rect x="-2" width="16" height="16" fill="#191919"/>
<rect x="-2" width="16" height="16" fill="#191919"/>
<rect x="-2" width="16" height="16" fill="#191919"/>
</g>
</svg>
